# File created by Blade
# Date/Time:  Wed Jan 21 16:14:13 2015
# Frame Rate: 120.000 fps
#------------------------------------------------------
:FULLY-SPECIFIED
:DEGREES
670
root 18.519968 35.511193 -20.257612 -171.213014 -5.609633 -179.410413
Spine -19.425070 0.287864 0.955238
Head 9.878487 -2.536159 -1.808591
LeftShoulder -9.351893 -33.852573 17.647556
LeftArm 9.949295 10.961984 -8.573809
LeftForeArm 12.020813 -0.000000 -2.698896
LeftHand -10.287717 -0.000000 -4.472804
LeftHandThumb1 -26.253704 0.000000 33.147579
RightShoulder -10.411087 -1.758900 -11.396703
RightArm 10.425049 40.194391 12.303264
RightForeArm -34.731519 -0.000000 2.580083
RightHand -4.357803 0.000000 9.973446
RightHandThumb1 -24.326973 -0.000000 -32.862282
LeftUpLeg -1.409763 5.901580 -0.013559
LeftLeg -5.144065 -0.000000 0.000000
LeftFoot -21.141740 24.463150 -12.155993
LeftToeBase 27.345675 -0.000000 -0.000000
RightUpLeg -1.249396 -8.938833 1.776738
RightLeg -3.342432 -0.000000 0.000000
RightFoot -22.285816 -28.977590 14.353292
RightToeBase 23.635001 -0.000000 -0.000000
671
root 18.517170 35.510904 -20.259890 -171.217403 -5.626594 -179.421622
Spine -19.416658 0.265983 0.968511
Head 9.866636 -2.512505 -1.810017
LeftShoulder -9.346926 -33.875461 17.633947
LeftArm 9.916264 10.903171 -8.608754
LeftForeArm 12.001591 -0.000000 -2.704830
LeftHand -10.304858 -0.000000 -4.478361
LeftHandThumb1 -26.253704 0.000000 33.147579
RightShoulder -10.404483 -1.700673 -11.439804
RightArm 10.461354 40.332667 12.380071
RightForeArm -34.766810 -0.000000 2.548251
RightHand -4.357366 0.000000 10.031452
RightHandThumb1 -24.326973 -0.000000 -32.862282
LeftUpLeg -1.403420 5.877193 -0.025597
LeftLeg -5.141050 -0.000000 0.000000
LeftFoot -21.147529 24.471291 -12.157375
LeftToeBase 27.351406 -0.000000 -0.000000
RightUpLeg -1.236785 -8.950384 1.764038
RightLeg -3.346769 -0.000000 0.000000
RightFoot -22.296264 -28.991705 14.361569
RightToeBase 23.616154 -0.000000 -0.000000
672
root 18.514067 35.510623 -20.262410 -171.220384 -5.640666 -179.432918
Spine -19.408898 0.254209 0.979330
Head 9.850926 -2.490717 -1.815508
LeftShoulder -9.351808 -33.885940 17.624264
LeftArm 9.899804 10.818384 -8.655396
LeftForeArm 12.006801 -0.000000 -2.706899
LeftHand -10.319580 -0.000000 -4.462129
LeftHandThumb1 -26.253704 0.000000 33.147579
RightShoulder -10.410136 -1.684400 -11.479783
RightArm 10.509823 40.471055 12.460406
RightForeArm -34.796936 -0.000000 2.518652
RightHand -4.344030 0.000000 10.105889
RightHandThumb1 -24.326973 -0.000000 -32.862282
LeftUpLeg -1.395010 5.857791 -0.037602
LeftLeg -5.143104 -0.000000 0.000000
LeftFoot -21.149789 24.457928 -12.184557
LeftToeBase 27.316743 -0.000000 -0.000000
RightUpLeg -1.225225 -8.970362 1.749791
RightLeg -3.350205 -0.000000 0.000000
RightFoot -22.300109 -28.985156 14.360928
RightToeBase 23.608007 -0.000000 -0.000000
673
root 18.510841 35.510201 -20.265258 -171.222896 -5.664061 -179.443607
Spine -19.400486 0.229384 0.995113
Head 9.818596 -2.464712 -1.822157
LeftShoulder -9.360244 -33.909729 17.616138
LeftArm 9.874262 10.748558 -8.694977
LeftForeArm 12.034969 -0.000000 -2.705171
LeftHand -10.303092 0.000000 -4.472461
LeftHandThumb1 -26.253704 0.000000 33.147579
RightShoulder -10.402795 -1.613904 -11.504752
RightArm 10.529364 40.522516 12.474322
RightForeArm -34.838775 -0.000000 2.473466
RightHand -4.319369 -0.000000 10.173247
RightHandThumb1 -24.326973 -0.000000 -32.862282
LeftUpLeg -1.392475 5.846429 -0.049347
LeftLeg -5.140628 -0.000000 0.000000
LeftFoot -21.130409 24.469905 -12.170495
LeftToeBase 27.026468 -0.000000 -0.000000
RightUpLeg -1.211569 -8.977238 1.734403
RightLeg -3.352657 -0.000000 0.000000
RightFoot -22.304686 -29.001168 14.344163
RightToeBase 23.637175 -0.000000 -0.000000
674
root 18.507925 35.509985 -20.267511 -171.222432 -5.662952 -179.450948
Spine -19.395742 0.219351 1.015115
Head 9.801442 -2.443293 -1.834725
LeftShoulder -9.375893 -33.928266 17.608864
LeftArm 9.845387 10.696781 -8.727585
LeftForeArm 12.034407 0.000000 -2.698821
LeftHand -10.283082 -0.000000 -4.472785
LeftHandThumb1 -26.253704 0.000000 33.147579
RightShoulder -10.392827 -1.620344 -11.535106
RightArm 10.579815 40.614448 12.532810
RightForeArm -34.895294 -0.000000 2.442941
RightHand -4.330700 -0.000000 10.217318
RightHandThumb1 -24.326973 -0.000000 -32.862282
LeftUpLeg -1.387633 5.838590 -0.060484
LeftLeg -5.138549 -0.000000 0.000000
LeftFoot -21.139892 24.462018 -12.167844
LeftToeBase 27.308075 -0.000000 -0.000000
RightUpLeg -1.214651 -8.980668 1.722724
RightLeg -3.340036 -0.000000 0.000000
RightFoot -22.322112 -28.997321 14.340144
RightToeBase 23.658194 -0.000000 -0.000000
675
root 18.505412 35.509710 -20.270075 -171.218369 -5.672687 -179.457402
Spine -19.405778 0.209498 1.030836
Head 9.768974 -2.467326 -1.865285
LeftShoulder -9.360622 -33.930558 17.587785
LeftArm 9.811641 10.656842 -8.750646
LeftForeArm 12.064984 -0.000000 -2.684284
LeftHand -10.272895 -0.000000 -4.516477
LeftHandThumb1 -26.253704 0.000000 33.147579
RightShoulder -10.366622 -1.623169 -11.558339
RightArm 10.566644 40.644843 12.535873
RightForeArm -34.983327 -0.000000 2.449346
RightHand -4.351651 0.000000 10.270277
RightHandThumb1 -24.326973 -0.000000 -32.862282
LeftUpLeg -1.387718 5.817369 -0.067784
LeftLeg -5.138736 -0.000000 0.000000
LeftFoot -21.146070 24.472644 -12.175952
LeftToeBase 27.322735 -0.000000 -0.000000
RightUpLeg -1.212591 -8.985616 1.713856
RightLeg -3.340808 -0.000000 0.000000
RightFoot -22.323548 -29.012876 14.351620
RightToeBase 23.607330 -0.000000 -0.000000
676
root 18.503715 35.509847 -20.272373 -171.210129 -5.679449 -179.457011
Spine -19.416058 0.206999 1.052675
Head 9.746481 -2.497014 -1.890778
LeftShoulder -9.350520 -33.930994 17.565016
LeftArm 9.785950 10.642895 -8.768295
LeftForeArm 12.059827 -0.000000 -2.677170
LeftHand -10.252570 0.000000 -4.564316
LeftHandThumb1 -26.253704 0.000000 33.147579
RightShoulder -10.353054 -1.617212 -11.570584
RightArm 10.538521 40.550177 12.494865
RightForeArm -34.988553 -0.000000 2.458525
RightHand -4.360982 -0.000000 10.316688
RightHandThumb1 -24.326973 -0.000000 -32.862282
LeftUpLeg -1.392150 5.817428 -0.067142
LeftLeg -5.138246 -0.000000 0.000000
LeftFoot -21.150054 24.444317 -12.186669
LeftToeBase 27.317580 -0.000000 -0.000000
RightUpLeg -1.218000 -8.975481 1.710429
RightLeg -3.335416 -0.000000 0.000000
RightFoot -22.325305 -29.018077 14.350408
RightToeBase 23.604140 -0.000000 -0.000000
677
root 18.500997 35.509794 -20.273785 -171.200780 -5.681911 -179.462643
Spine -19.419870 0.199582 1.072315
Head 9.727718 -2.470294 -1.889484
LeftShoulder -9.361624 -33.967791 17.555023
LeftArm 9.764033 10.684190 -8.778824
LeftForeArm 12.075574 -0.000000 -2.670927
LeftHand -10.250074 0.000000 -4.552480
LeftHandThumb1 -26.253704 0.000000 33.147579
RightShoulder -10.342119 -1.597855 -11.586971
RightArm 10.533151 40.454406 12.472458
RightForeArm -35.029680 -0.000000 2.461223
RightHand -4.363531 -0.000000 10.297930
RightHandThumb1 -24.326973 -0.000000 -32.862282
LeftUpLeg -1.400992 5.821871 -0.076529
LeftLeg -5.139564 -0.000000 0.000000
LeftFoot -21.143245 24.453233 -12.176782
LeftToeBase 27.085725 -0.000000 -0.000000
RightUpLeg -1.229908 -8.985460 1.703957
RightLeg -3.324682 -0.000000 0.000000
RightFoot -22.332299 -29.018355 14.327937
RightToeBase 23.654217 -0.000000 -0.000000
678
root 18.498255 35.509661 -20.275370 -171.190094 -5.690058 -179.466916
Spine -19.430449 0.192807 1.089521
Head 9.696937 -2.471489 -1.899715
LeftShoulder -9.355473 -33.965540 17.531238
LeftArm 9.752236 10.704888 -8.780669
LeftForeArm 12.093741 0.000000 -2.672636
LeftHand -10.248653 -0.000000 -4.560898
LeftHandThumb1 -26.253704 0.000000 33.147579
RightShoulder -10.325494 -1.603585 -11.577989
RightArm 10.509021 40.355196 12.402800
RightForeArm -35.070772 -0.000000 2.454124
RightHand -4.354121 -0.000000 10.270111
RightHandThumb1 -24.326973 -0.000000 -32.862282
LeftUpLeg -1.413413 5.808287 -0.085337
LeftLeg -5.125752 -0.000000 0.000000
LeftFoot -21.162489 24.442456 -12.189341
LeftToeBase 27.337502 -0.000000 -0.000000
RightUpLeg -1.237989 -8.995687 1.697370
RightLeg -3.320562 -0.000000 0.000000
RightFoot -22.333699 -29.023887 14.332020
RightToeBase 23.642517 -0.000000 -0.000000
679
root 18.496298 35.509299 -20.277497 -171.172714 -5.693695 -179.469900
Spine -19.453417 0.185919 1.106409
Head 9.659439 -2.489277 -1.928632
LeftShoulder -9.355994 -33.954433 17.523488
LeftArm 9.738991 10.758739 -8.787673
LeftForeArm 12.078229 -0.000000 -2.671272
LeftHand -10.253224 -0.000000 -4.575321
LeftHandThumb1 -26.253704 0.000000 33.147579
RightShoulder -10.306834 -1.623540 -11.570308
RightArm 10.479455 40.249363 12.339557
RightForeArm -35.112363 0.000000 2.475842
RightHand -4.327530 0.000000 10.252546
RightHandThumb1 -24.326973 -0.000000 -32.862282
LeftUpLeg -1.422502 5.809068 -0.090661
LeftLeg -5.134492 -0.000000 0.000000
LeftFoot -21.161548 24.433231 -12.191268
LeftToeBase 27.326125 -0.000000 -0.000000
RightUpLeg -1.247967 -8.993718 1.695240
RightLeg -3.327291 -0.000000 0.000000
RightFoot -22.327738 -29.032064 14.342055
RightToeBase 23.582911 -0.000000 -0.000000
